<svg id="Capa_1" enable-background="new 0 0 512 512" height="512" viewBox="0 0 512 512" width="512" xmlns="http://www.w3.org/2000/svg"><g><path d="m67.101 0-67.101 69.278v442.722h512v-512zm296.925 30v122.374h-134.768v-122.374zm-164.768 0v122.374h-51.284v-122.374zm282.742 452h-452v-400.576l49.808-51.424h38.166v152.374h276.053v-152.374h87.973z"/><path d="m256 241c-50.28 0-91.187 40.906-91.187 91.187s40.907 91.187 91.187 91.187 91.187-40.906 91.187-91.187-40.907-91.187-91.187-91.187zm0 152.374c-33.738 0-61.187-27.448-61.187-61.187s27.449-61.187 61.187-61.187 61.187 27.448 61.187 61.187-27.449 61.187-61.187 61.187z"/><path d="m241 317.187h30v30h-30z"/></g></svg>